<svg width="291" height="90" viewBox="0 0 291 90" fill="none" xmlns="http://www.w3.org/2000/svg">
<path d="M87.207 55.5882V56.3162C87.207 59.8897 87.8061 62.5589 89.0045 64.3235C90.2441 66.0441 92.3514 66.9044 95.3265 66.9044C98.3428 66.9044 101.297 65.6911 104.19 63.2647C105.016 63.9265 105.429 64.9631 105.429 66.375C105.429 67.7425 104.273 69.1544 101.958 70.6103C99.6859 72.0662 96.8348 72.7941 93.4051 72.7941C88.9425 72.7941 85.4715 71.4044 82.9923 68.625C80.5543 65.8016 79.3354 61.5441 79.3354 55.8529C79.3354 50.1178 80.6578 45.6178 83.3022 42.3529C85.9882 39.0441 89.6655 37.3897 94.3348 37.3897C98.3016 37.3897 101.256 38.7132 103.198 41.3603C105.181 44.0073 106.132 47.4925 106.049 51.8162V55.5882H87.207ZM93.653 42.6838C90.2648 42.6838 88.2195 45.4632 87.5169 51.0221H98.7974C98.7147 48.0219 98.2396 45.8825 97.3719 44.6029C96.5041 43.3234 95.2645 42.6838 93.653 42.6838ZM131.404 38.3823H140.329C140.329 41.2058 139.585 42.6838 138.098 42.8162L137.168 42.9485L126.011 71.8015H121.859L110.888 43.0809H110.826L107.975 42.6838C107.934 41.5366 108.12 40.544 108.533 39.7059C108.946 38.8234 109.648 38.3823 110.64 38.3823H122.912C122.83 40.0146 122.644 41.0294 122.354 41.4265C121.735 42.2646 121.012 42.7278 120.185 42.8162L119.193 42.9485L125.206 59.625L131.28 43.0147L128.615 42.6838C128.491 42.4191 128.511 41.8235 128.677 40.8971C129.048 39.2205 129.957 38.3823 131.404 38.3823ZM156.163 71.8015H142.341V71.272C142.341 68.8457 143.25 67.544 145.068 67.3676L146.989 67.2353V30.3088L144.572 30.0441C142.878 29.8677 142.114 28.5 142.279 25.9412L154.551 24.4853V67.1029L158.952 67.5C159.2 70.3677 158.27 71.8015 156.163 71.8015ZM181.905 45.9926C180.748 43.6543 179.096 42.4853 176.947 42.4853C174.798 42.4853 173.125 43.6325 171.926 45.9265C170.77 48.2205 170.191 51.3529 170.191 55.3235C170.191 59.2501 170.77 62.3161 171.926 64.522C173.125 66.6837 174.798 67.7647 176.947 67.7647C179.096 67.7647 180.748 66.7059 181.905 64.5882C183.104 62.4266 183.703 59.3825 183.703 55.4559C183.703 51.4853 183.104 48.331 181.905 45.9926ZM162.319 55.6544C162.319 50.0072 163.621 45.5516 166.224 42.2868C168.869 39.0219 172.526 37.3897 177.195 37.3897C181.864 37.3897 185.418 38.9558 187.856 42.0882C190.335 45.2207 191.574 49.5662 191.574 55.125C191.574 60.6398 190.252 64.9631 187.608 68.0956C184.963 71.228 181.265 72.7941 176.513 72.7941C171.802 72.7941 168.249 71.3382 165.852 68.4265C163.497 65.5147 162.319 61.2572 162.319 55.6544ZM207.503 62.1397C206.47 62.1397 205.437 62.0295 204.404 61.8088C203.826 62.9116 203.536 63.7058 203.536 64.1912C203.536 64.6766 204.011 65.0075 204.962 65.1838C205.912 65.3162 208.164 65.4485 211.718 65.5809C215.271 65.7132 218.019 66.3972 219.961 67.6323C221.945 68.8235 222.936 70.8972 222.936 73.8529C222.936 77.9119 221.47 81.1545 218.536 83.5809C215.602 86.0072 211.987 87.2206 207.689 87.2206C203.433 87.2206 200.231 86.3825 198.082 84.7059C195.975 83.0293 194.921 80.8676 194.921 78.2206C194.921 75.5735 196.119 73.0588 198.516 70.6765C197.896 69.8823 197.586 68.8235 197.586 67.5C197.586 65.1616 198.619 62.7131 200.685 60.1544C197.503 57.9484 195.913 54.5956 195.913 50.0956C195.913 46.4337 197.008 43.4118 199.198 41.0294C201.429 38.603 204.404 37.3897 208.123 37.3897C210.561 37.3897 212.71 37.9191 214.569 38.9779L222.874 36.5956C223.246 37.081 223.453 37.9853 223.494 39.3088C223.535 40.6323 223.329 41.5148 222.874 41.9559C222.255 42.3089 220.643 42.4413 218.04 42.3529C219.238 44.2499 219.755 46.8969 219.589 50.2941C219.424 53.6469 218.247 56.4707 216.056 58.7647C213.866 61.0147 211.015 62.1397 207.503 62.1397ZM217.668 75.9044C217.668 74.8896 216.965 74.2278 215.561 73.9191C214.156 73.6104 211.78 73.3675 208.433 73.1912C205.086 73.0148 202.937 72.8163 201.987 72.5956C200.954 73.9191 200.437 75.2648 200.437 76.6323C200.437 77.9999 201.098 79.1249 202.421 80.0073C203.743 80.8898 205.726 81.3309 208.371 81.3309C211.015 81.3309 213.226 80.8015 215.003 79.7426C216.779 78.7278 217.668 77.4486 217.668 75.9044ZM207.627 57.3088C209.115 57.3088 210.292 56.6692 211.16 55.3897C212.028 54.0662 212.462 52.2354 212.462 49.8971C212.462 47.5147 212.049 45.6839 211.222 44.4044C210.395 43.0809 209.218 42.4191 207.689 42.4191C206.16 42.4191 204.983 43.0809 204.156 44.4044C203.371 45.7279 202.979 47.5809 202.979 49.9632C202.979 54.8603 204.528 57.3088 207.627 57.3088ZM233.746 55.5882V56.3162C233.746 59.8897 234.345 62.5589 235.543 64.3235C236.783 66.0441 238.89 66.9044 241.865 66.9044C244.882 66.9044 247.836 65.6911 250.729 63.2647C251.555 63.9265 251.968 64.9631 251.968 66.375C251.968 67.7425 250.811 69.1544 248.497 70.6103C246.224 72.0662 243.373 72.7941 239.944 72.7941C235.481 72.7941 232.01 71.4044 229.531 68.625C227.093 65.8016 225.874 61.5441 225.874 55.8529C225.874 50.1178 227.196 45.6178 229.841 42.3529C232.527 39.0441 236.204 37.3897 240.874 37.3897C244.84 37.3897 247.795 38.7132 249.737 41.3603C251.72 44.0073 252.67 47.4925 252.588 51.8162V55.5882H233.746ZM240.192 42.6838C236.803 42.6838 234.758 45.4632 234.056 51.0221H245.336C245.253 48.0219 244.778 45.8825 243.911 44.6029C243.043 43.3234 241.803 42.6838 240.192 42.6838ZM283.893 71.8015H270.877C270.959 70.1249 271.145 69.1104 271.435 68.7573C272.054 68.0072 272.777 67.544 273.604 67.3676L274.348 67.2353H274.472L269.141 59.3603L264.555 67.1029L267.778 67.5C268.026 70.3677 267.096 71.8015 264.988 71.8015H254.948V71.272C254.948 68.8457 255.857 67.544 257.675 67.3676L259.1 67.2353L266.662 55.6544L258.171 43.0809L254.886 42.6838C254.803 42.1544 254.865 41.4926 255.072 40.6985C255.485 39.1543 256.352 38.3823 257.675 38.3823H270.443C270.319 39.9266 270.133 40.8971 269.885 41.2941C269.348 42.0882 268.459 42.6398 267.22 42.9485H267.158L272.426 50.7573L277.013 43.0809H276.889L274.286 42.6838C274.162 42.4191 274.182 41.8235 274.348 40.8971C274.719 39.2205 275.628 38.3823 277.075 38.3823H286.372V38.9118C286.372 41.3381 285.463 42.6398 283.645 42.8162L282.343 42.9485L275.029 54.5956L283.459 67.1029L286.682 67.5C286.806 67.7647 286.785 68.3603 286.62 69.2868C286.248 70.9633 285.339 71.8015 283.893 71.8015Z" fill="white"/>
<path d="M36.6158 13.4073C43.8155 14.0426 50.4796 15.9485 56.6083 19.125C62.737 22.3015 67.5863 26.3038 71.1564 31.1321C74.7265 35.8968 76.5116 40.9156 76.5116 46.1885C76.5116 50.8262 74.6075 55.9403 70.7994 61.5309C66.9913 67.1215 62.3502 71.8544 56.8761 75.7297C51.4614 79.605 46.5228 81.5426 42.0602 81.5426C40.5726 81.5426 38.6686 80.7485 36.348 79.1603C34.087 77.572 32.0936 75.7615 30.3681 73.7285C28.6426 71.632 27.7798 69.9803 27.7798 68.7732C27.7798 67.6932 28.3748 64.6756 29.5648 59.7203C30.7549 54.5744 31.7366 49.9368 32.5102 45.8073C32.8077 44.2191 33.4622 41.4238 34.4737 37.4215C34.5927 36.8497 34.8902 35.7062 35.3662 33.9909C35.8422 32.2121 36.1993 30.5921 36.4373 29.1309L32.7779 28.9403C31.8259 26.9073 31.3499 24.8744 31.3499 22.8415C31.3499 20.9356 31.7961 19.1885 32.6887 17.6003C33.5812 15.9485 34.8902 14.5509 36.6158 13.4073ZM42.0602 69.0591C48.0103 65.7556 52.949 61.7215 56.8761 56.9568C60.8627 52.192 62.856 47.7132 62.856 43.5203C62.856 41.0426 61.4577 38.6603 58.6611 36.3732C55.924 34.0862 52.7704 32.5615 49.2004 31.7991C48.4863 35.6744 47.4153 41.2332 45.9873 48.4756C44.2022 57.4968 42.8932 64.3579 42.0602 69.0591Z" fill="white"/>
</svg>